<svg width="1404" height="5875" viewBox="0 0 1404 5875" fill="none" xmlns="http://www.w3.org/2000/svg">
<ellipse cx="392.146" cy="385.089" rx="392.146" ry="385.089" transform="matrix(0.969732 -0.244172 0.253855 0.967242 210.148 63.6521)" fill="#16FCD2"/>
<ellipse cx="219.466" cy="215.517" rx="219.466" ry="215.517" transform="matrix(0.969732 -0.244172 0.253855 0.967242 88 1370.34)" fill="#FCA016"/>
<ellipse cx="178.305" cy="175.096" rx="178.305" ry="175.096" transform="matrix(0.969732 -0.244172 0.253855 0.967242 367 1192.54)" fill="#16FCD2"/>
<ellipse cx="219.466" cy="215.517" rx="219.466" ry="215.517" transform="matrix(0.969732 -0.244172 0.253855 0.967242 626 2007.98)" fill="#FC165B"/>
<ellipse cx="392.146" cy="385.089" rx="392.146" ry="385.089" transform="matrix(0.969732 -0.244172 0.253855 0.967242 -327 198.902)" fill="#FCA016"/>
<ellipse cx="392.146" cy="385.089" rx="392.146" ry="385.089" transform="matrix(0.969732 -0.244172 0.253855 0.967242 532.438 -17.498)" fill="#FC165B"/>
<ellipse cx="178.305" cy="175.096" rx="178.305" ry="175.096" transform="matrix(0.969732 -0.244172 0.253855 0.967242 124 4997.07)" fill="#6016FC"/>
<g filter="url(#filter0_f_0_1)">
<circle cx="298.137" cy="2700.14" r="23.4718" transform="rotate(-34.7184 298.137 2700.14)" fill="url(#paint0_linear_0_1)"/>
</g>
<g filter="url(#filter1_f_0_1)">
<circle cx="1246.66" cy="2792.66" r="14.925" transform="rotate(-34.7184 1246.66 2792.66)" fill="#6016FC"/>
</g>
<g filter="url(#filter2_f_0_1)">
<circle cx="1083.33" cy="2644.33" r="27.5437" transform="rotate(-34.7184 1083.33 2644.33)" fill="url(#paint1_linear_0_1)"/>
</g>
<g filter="url(#filter3_f_0_1)">
<circle cx="1331.66" cy="5610.66" r="23.4718" transform="rotate(-34.7184 1331.66 5610.66)" fill="url(#paint2_linear_0_1)"/>
</g>
<g filter="url(#filter4_f_0_1)">
<circle cx="117.327" cy="5837.33" r="27.5437" transform="rotate(-34.7184 117.327 5837.33)" fill="url(#paint3_linear_0_1)"/>
</g>
<defs>
<filter id="filter0_f_0_1" x="264.663" y="2666.66" width="66.9478" height="66.948" filterUnits="userSpaceOnUse" color-interpolation-filters="sRGB">
<feFlood flood-opacity="0" result="BackgroundImageFix"/>
<feBlend mode="normal" in="SourceGraphic" in2="BackgroundImageFix" result="shape"/>
<feGaussianBlur stdDeviation="5" result="effect1_foregroundBlur_0_1"/>
</filter>
<filter id="filter1_f_0_1" x="1221.73" y="2767.73" width="49.8527" height="49.8525" filterUnits="userSpaceOnUse" color-interpolation-filters="sRGB">
<feFlood flood-opacity="0" result="BackgroundImageFix"/>
<feBlend mode="normal" in="SourceGraphic" in2="BackgroundImageFix" result="shape"/>
<feGaussianBlur stdDeviation="5" result="effect1_foregroundBlur_0_1"/>
</filter>
<filter id="filter2_f_0_1" x="1045.78" y="2606.78" width="75.0924" height="75.0925" filterUnits="userSpaceOnUse" color-interpolation-filters="sRGB">
<feFlood flood-opacity="0" result="BackgroundImageFix"/>
<feBlend mode="normal" in="SourceGraphic" in2="BackgroundImageFix" result="shape"/>
<feGaussianBlur stdDeviation="5" result="effect1_foregroundBlur_0_1"/>
</filter>
<filter id="filter3_f_0_1" x="1298.19" y="5577.19" width="66.9478" height="66.9478" filterUnits="userSpaceOnUse" color-interpolation-filters="sRGB">
<feFlood flood-opacity="0" result="BackgroundImageFix"/>
<feBlend mode="normal" in="SourceGraphic" in2="BackgroundImageFix" result="shape"/>
<feGaussianBlur stdDeviation="5" result="effect1_foregroundBlur_0_1"/>
</filter>
<filter id="filter4_f_0_1" x="79.781" y="5799.78" width="75.0924" height="75.0923" filterUnits="userSpaceOnUse" color-interpolation-filters="sRGB">
<feFlood flood-opacity="0" result="BackgroundImageFix"/>
<feBlend mode="normal" in="SourceGraphic" in2="BackgroundImageFix" result="shape"/>
<feGaussianBlur stdDeviation="5" result="effect1_foregroundBlur_0_1"/>
</filter>
<linearGradient id="paint0_linear_0_1" x1="298.137" y1="2676.67" x2="298.137" y2="2723.61" gradientUnits="userSpaceOnUse">
<stop stop-color="#FF81A6"/>
<stop offset="1" stop-color="#FC165B"/>
</linearGradient>
<linearGradient id="paint1_linear_0_1" x1="1083.33" y1="2616.78" x2="1083.33" y2="2671.87" gradientUnits="userSpaceOnUse">
<stop stop-color="#66FFA3"/>
<stop offset="1" stop-color="#009C3E"/>
</linearGradient>
<linearGradient id="paint2_linear_0_1" x1="1331.66" y1="5587.19" x2="1331.66" y2="5634.13" gradientUnits="userSpaceOnUse">
<stop stop-color="#FF81A6"/>
<stop offset="1" stop-color="#FC165B"/>
</linearGradient>
<linearGradient id="paint3_linear_0_1" x1="117.327" y1="5809.78" x2="117.327" y2="5864.87" gradientUnits="userSpaceOnUse">
<stop stop-color="#66FFA3"/>
<stop offset="1" stop-color="#009C3E"/>
</linearGradient>
</defs>
</svg>

